<svg xmlns="http://www.w3.org/2000/svg"  viewBox="0 0 32 32" width="32px" height="32px"><path d="M 22.605469 2.972656 C 22.28125 2.972656 22.164063 2.988281 22.019531 3 C 22.011719 3 22.007813 3 22 3 C 19.125 3 18 4 18 4 C 18.007813 4.007813 18.019531 4.011719 18.027344 4.019531 C 17.886719 4.011719 17.757813 4 17.613281 3.996094 C 17.601563 3.996094 17.589844 3.996094 17.578125 3.996094 C 16.691406 3.996094 15.832031 4.136719 15.023438 4.382813 C 14.292969 3.996094 13.144531 3.527344 11.625 3.25 C 10.960938 3.097656 10.195313 2.992188 9.324219 2.992188 C 9.21875 2.992188 9.113281 2.996094 9.007813 3 C 9.003906 3 9.003906 3 9 3 C 8.976563 3 8.953125 3 8.929688 3 C 7.414063 3.054688 5.691406 3.292969 4.429688 4.671875 C 3.339844 5.859375 2.871094 7.636719 3 10.105469 C 3.050781 10.992188 3.390625 13.863281 4.101563 16.613281 C 4.808594 19.355469 6.089844 23 9 23 C 10.386719 23 12.464844 22.609375 13.992188 21.734375 C 13.996094 21.734375 14 21.730469 14 21.730469 C 14.003906 22.117188 14.003906 22.367188 14 22.984375 C 14 23.035156 14 23.089844 14.003906 23.140625 L 14.050781 23.78125 C 14.09375 24.300781 14.136719 24.84375 14.136719 25.132813 C 14.136719 27.15625 16.1875 29 18.4375 29 C 20.632813 29 23 27.3125 23 23.613281 L 23 22.042969 C 23.148438 22.039063 23.382813 22.039063 23.382813 22.039063 C 24.125 22.078125 25.101563 21.835938 25.671875 21.53125 C 26.902344 20.867188 27.574219 19.835938 26.359375 20.125 C 25.773438 20.265625 25.335938 20.304688 24.964844 20.308594 C 25.816406 19.742188 26.710938 18.753906 27.457031 17.039063 C 28.945313 13.617188 29.566406 7.628906 28.160156 5.519531 C 26.6875 3.304688 24.046875 2.972656 22.605469 2.972656 Z M 22.605469 4.972656 C 23.589844 4.972656 25.53125 5.171875 26.5 6.625 C 27.511719 8.152344 26.859375 15.3125 24.5625 17.996094 C 24.78125 17.582031 24.941406 16.96875 25 16 C 25 15.167969 24.953125 12.382813 25 12 C 25.0625 11.480469 25.019531 10.550781 25 10 C 25.015625 9.925781 25.015625 9.847656 25.015625 9.757813 C 25.015625 8.832031 24.683594 8.019531 24.25 7.324219 C 24.214844 7.257813 24.175781 7.191406 24.132813 7.125 C 24.09375 7.066406 24.058594 7.007813 24.019531 6.953125 C 23.703125 6.476563 23.296875 6.023438 22.785156 5.613281 C 22.34375 5.226563 22 5 22 5 C 22 5 22.234375 4.972656 22.605469 4.972656 Z M 9.324219 4.992188 C 10.632813 4.992188 11.640625 5.277344 12.535156 5.609375 C 12.421875 5.691406 12.304688 5.777344 12.199219 5.867188 C 11.265625 6.433594 10.707031 7.238281 10.390625 8.179688 C 10.140625 8.757813 10 9.371094 10 10 C 10 10.074219 10.011719 10.144531 10.019531 10.21875 C 10.007813 10.476563 10 10.738281 10 11 C 10 11 10 11.003906 10 11.003906 C 10 11.011719 10 11.015625 10 11.019531 C 10 11.109375 10.03125 11.265625 10.03125 11.480469 C 10.03125 12.5 10 14.710938 10 16 C 10 18.199219 12.351563 20.003906 12.964844 20.003906 C 12.976563 20.003906 12.988281 20.003906 13 20 C 11.832031 20.667969 10.082031 21 9 21 C 6.347656 21 5.085938 11.636719 5 10 C 4.769531 5.636719 6.644531 5.082031 9 5 C 9.109375 4.996094 9.21875 4.992188 9.324219 4.992188 Z M 17.578125 5.996094 C 19.332031 6.023438 20.546875 6.453125 21.375 7.046875 C 21.71875 7.328125 22.164063 7.761719 22.519531 8.304688 C 22.859375 8.910156 23 9.523438 23 10 C 21.742188 10.105469 20.695313 10.160156 20.230469 10.898438 C 19.171875 12.585938 19.964844 15.4375 20.707031 16.71875 C 20.785156 16.859375 21.652344 17.675781 22 18 C 22.125 18.117188 21.539063 18.277344 21.421875 18.402344 C 21.085938 18.75 21.089844 19.800781 21.019531 20.984375 C 21.007813 20.996094 21 21 21 21 C 21 21 21.003906 21.109375 21.011719 21.261719 C 21.007813 21.375 21 21.476563 21 21.597656 L 21 23.613281 C 21 26.125 19.601563 27 18.4375 27 C 17.199219 27 16.136719 25.988281 16.136719 25.132813 C 16.136719 24.628906 16.054688 23.769531 16 23 C 16.011719 21.222656 16 20.578125 16 20 C 16 19.441406 15 19 15 19 C 15.125 18.707031 15.53125 18.109375 15.53125 18.109375 C 15.832031 17.351563 15.992188 16.632813 16 15 C 16.003906 14.253906 15.902344 13.441406 15.691406 12.511719 C 15.402344 11.242188 14.441406 10.011719 13 10 L 12.046875 10 C 12.085938 9.59375 12.148438 9.257813 12.234375 8.972656 C 12.492188 8.382813 12.964844 7.828125 13.570313 7.359375 C 13.710938 7.277344 13.84375 7.195313 13.957031 7.085938 C 14.960938 6.433594 16.234375 5.996094 17.578125 5.996094 Z M 12.027344 12 L 12.082031 12 C 12.058594 12.027344 12.03125 12.050781 12.027344 12.078125 C 12.027344 12.054688 12.023438 12.023438 12.027344 12 Z M 23 12.007813 L 23.003906 12.007813 C 22.980469 12.382813 22.972656 13.023438 22.992188 14.933594 C 22.996094 15.378906 23 15.765625 23 16 C 23 16.085938 23.011719 16.128906 23.019531 16.203125 C 22.765625 15.964844 22.480469 15.695313 22.355469 15.566406 C 21.984375 14.851563 21.734375 13.8125 21.730469 12.984375 C 21.820313 13 21.914063 13.003906 22.011719 12.988281 C 22.585938 12.910156 23.027344 12.3125 23 12.089844 C 22.996094 12.058594 22.964844 12.039063 22.945313 12.015625 C 22.964844 12.011719 22.980469 12.007813 23 12.007813 Z M 12.027344 12.136719 C 12.035156 12.382813 12.449219 12.921875 13 13 C 13.269531 13.039063 13.503906 12.941406 13.699219 12.820313 C 13.710938 12.863281 13.730469 12.910156 13.738281 12.953125 C 13.917969 13.730469 14.003906 14.398438 14 14.992188 C 13.996094 16.261719 13.886719 16.777344 13.738281 17.1875 C 13.59375 17.414063 13.425781 17.699219 13.285156 17.96875 C 12.828125 17.648438 12 16.789063 12 16 C 12 15.320313 12.007813 14.386719 12.015625 13.507813 C 12.019531 12.96875 12.023438 12.5625 12.027344 12.136719 Z"/></svg>